<svg preserveAspectRatio="none" width="100%" height="100%" overflow="visible" style="display: block;" viewBox="0 0 9 16" fill="none" xmlns="http://www.w3.org/2000/svg">
<g id="Vector">
<path d="M6.78928 0.393822C7.29501 -0.131274 8.11497 -0.131274 8.6207 0.393822C9.12643 0.918919 9.12643 1.77027 8.6207 2.29536L2.21072 8.95076C1.70499 9.47586 0.885033 9.47586 0.3793 8.95076C-0.126433 8.42567 -0.126433 7.57432 0.3793 7.04922L6.78928 0.393822Z" fill="var(--fill-0, #1B1F3B)"/>
<path d="M8.6205 13.7046C9.12624 14.2297 9.12624 15.0811 8.6205 15.6062C8.11477 16.1313 7.29481 16.1313 6.78908 15.6062L0.3793 8.95076C-0.126433 8.42567 -0.126433 7.57432 0.3793 7.04922C0.885033 6.52412 1.70479 6.52414 2.21053 7.04924L8.6205 13.7046Z" fill="var(--fill-0, #1B1F3B)"/>
</g>
</svg>
