<svg preserveAspectRatio="none" width="100%" height="100%" overflow="visible" style="display: block;" viewBox="0 0 7 12" fill="none" xmlns="http://www.w3.org/2000/svg">
<g id="Vector">
<path d="M5.28055 0.295367C5.6739 -0.0984556 6.31164 -0.0984555 6.70499 0.295367C7.09834 0.689189 7.09834 1.3277 6.70499 1.72152L1.71945 6.71307C1.3261 7.10689 0.688359 7.10689 0.295011 6.71307C-0.098337 6.31925 -0.098337 5.68074 0.295011 5.28692L5.28055 0.295367Z" fill="var(--fill-0, #1B1F3B)"/>
<path d="M6.70484 10.2785C7.09818 10.6723 7.09818 11.3108 6.70484 11.7046C6.31149 12.0985 5.67375 12.0985 5.2804 11.7046L0.295011 6.71307C-0.098337 6.31925 -0.098337 5.68074 0.295011 5.28692C0.688359 4.89309 1.32595 4.89311 1.7193 5.28693L6.70484 10.2785Z" fill="var(--fill-0, #1B1F3B)"/>
</g>
</svg>
